<?xml version="1.0" encoding="utf-8"?>
<!DOCTYPE svg PUBLIC "-//W3C//DTD SVG 1.1//EN" "http://www.w3.org/Graphics/SVG/1.1/DTD/svg11.dtd">
<svg version="1.1" id="Layer_1" xmlns="http://www.w3.org/2000/svg" xmlns:xlink="http://www.w3.org/1999/xlink" x="0px" y="0px"
width="1200px" height="1200px" viewBox="0 0 1200 1200" enable-background="new 0 0 1200 1200" xml:space="preserve">
<rect x="0" y="0" width="1200" height="1200" fill="rgb(255,255,255)" /><g transform="translate(96,96)"><g transform="translate(432,0) scale(0.48,0.48)"><g transform="" style="fill: rgb(32, 126, 69);">
<rect width="100" height="100"/>
</g></g><g transform="translate(480,0) scale(0.48,0.48)"><g transform="" style="fill: rgb(32, 126, 69);">
<rect width="100" height="100"/>
</g></g><g transform="translate(576,0) scale(0.48,0.48)"><g transform="" style="fill: rgb(32, 126, 69);">
<rect width="100" height="100"/>
</g></g><g transform="translate(384,48) scale(0.48,0.48)"><g transform="" style="fill: rgb(32, 126, 69);">
<rect width="100" height="100"/>
</g></g><g transform="translate(480,48) scale(0.48,0.48)"><g transform="" style="fill: rgb(32, 126, 69);">
<rect width="100" height="100"/>
</g></g><g transform="translate(528,48) scale(0.48,0.48)"><g transform="" style="fill: rgb(32, 126, 69);">
<rect width="100" height="100"/>
</g></g><g transform="translate(576,48) scale(0.48,0.48)"><g transform="" style="fill: rgb(32, 126, 69);">
<rect width="100" height="100"/>
</g></g><g transform="translate(528,96) scale(0.48,0.48)"><g transform="" style="fill: rgb(32, 126, 69);">
<rect width="100" height="100"/>
</g></g><g transform="translate(576,96) scale(0.48,0.48)"><g transform="" style="fill: rgb(32, 126, 69);">
<rect width="100" height="100"/>
</g></g><g transform="translate(576,144) scale(0.48,0.48)"><g transform="" style="fill: rgb(32, 126, 69);">
<rect width="100" height="100"/>
</g></g><g transform="translate(384,192) scale(0.48,0.48)"><g transform="" style="fill: rgb(32, 126, 69);">
<rect width="100" height="100"/>
</g></g><g transform="translate(432,192) scale(0.48,0.48)"><g transform="" style="fill: rgb(32, 126, 69);">
<rect width="100" height="100"/>
</g></g><g transform="translate(480,192) scale(0.48,0.48)"><g transform="" style="fill: rgb(32, 126, 69);">
<rect width="100" height="100"/>
</g></g><g transform="translate(528,192) scale(0.48,0.48)"><g transform="" style="fill: rgb(32, 126, 69);">
<rect width="100" height="100"/>
</g></g><g transform="translate(576,192) scale(0.48,0.48)"><g transform="" style="fill: rgb(32, 126, 69);">
<rect width="100" height="100"/>
</g></g><g transform="translate(528,240) scale(0.48,0.48)"><g transform="" style="fill: rgb(32, 126, 69);">
<rect width="100" height="100"/>
</g></g><g transform="translate(384,288) scale(0.48,0.48)"><g transform="" style="fill: rgb(32, 126, 69);">
<rect width="100" height="100"/>
</g></g><g transform="translate(480,288) scale(0.48,0.48)"><g transform="" style="fill: rgb(32, 126, 69);">
<rect width="100" height="100"/>
</g></g><g transform="translate(576,288) scale(0.48,0.48)"><g transform="" style="fill: rgb(32, 126, 69);">
<rect width="100" height="100"/>
</g></g><g transform="translate(0,384) scale(0.48,0.48)"><g transform="" style="fill: rgb(32, 126, 69);">
<rect width="100" height="100"/>
</g></g><g transform="translate(96,384) scale(0.48,0.48)"><g transform="" style="fill: rgb(32, 126, 69);">
<rect width="100" height="100"/>
</g></g><g transform="translate(192,384) scale(0.48,0.48)"><g transform="" style="fill: rgb(32, 126, 69);">
<rect width="100" height="100"/>
</g></g><g transform="translate(288,384) scale(0.48,0.48)"><g transform="" style="fill: rgb(32, 126, 69);">
<rect width="100" height="100"/>
</g></g><g transform="translate(480,384) scale(0.48,0.48)"><g transform="" style="fill: rgb(32, 126, 69);">
<rect width="100" height="100"/>
</g></g><g transform="translate(576,384) scale(0.48,0.48)"><g transform="" style="fill: rgb(32, 126, 69);">
<rect width="100" height="100"/>
</g></g><g transform="translate(768,384) scale(0.48,0.48)"><g transform="" style="fill: rgb(32, 126, 69);">
<rect width="100" height="100"/>
</g></g><g transform="translate(912,384) scale(0.48,0.48)"><g transform="" style="fill: rgb(32, 126, 69);">
<rect width="100" height="100"/>
</g></g><g transform="translate(0,432) scale(0.48,0.48)"><g transform="" style="fill: rgb(32, 126, 69);">
<rect width="100" height="100"/>
</g></g><g transform="translate(48,432) scale(0.48,0.48)"><g transform="" style="fill: rgb(32, 126, 69);">
<rect width="100" height="100"/>
</g></g><g transform="translate(144,432) scale(0.48,0.48)"><g transform="" style="fill: rgb(32, 126, 69);">
<rect width="100" height="100"/>
</g></g><g transform="translate(240,432) scale(0.48,0.48)"><g transform="" style="fill: rgb(32, 126, 69);">
<rect width="100" height="100"/>
</g></g><g transform="translate(336,432) scale(0.48,0.48)"><g transform="" style="fill: rgb(32, 126, 69);">
<rect width="100" height="100"/>
</g></g><g transform="translate(432,432) scale(0.48,0.48)"><g transform="" style="fill: rgb(32, 126, 69);">
<rect width="100" height="100"/>
</g></g><g transform="translate(480,432) scale(0.48,0.48)"><g transform="" style="fill: rgb(32, 126, 69);">
<rect width="100" height="100"/>
</g></g><g transform="translate(528,432) scale(0.48,0.48)"><g transform="" style="fill: rgb(32, 126, 69);">
<rect width="100" height="100"/>
</g></g><g transform="translate(768,432) scale(0.48,0.48)"><g transform="" style="fill: rgb(32, 126, 69);">
<rect width="100" height="100"/>
</g></g><g transform="translate(816,432) scale(0.48,0.48)"><g transform="" style="fill: rgb(32, 126, 69);">
<rect width="100" height="100"/>
</g></g><g transform="translate(912,432) scale(0.48,0.48)"><g transform="" style="fill: rgb(32, 126, 69);">
<rect width="100" height="100"/>
</g></g><g transform="translate(960,432) scale(0.48,0.48)"><g transform="" style="fill: rgb(32, 126, 69);">
<rect width="100" height="100"/>
</g></g><g transform="translate(0,480) scale(0.48,0.48)"><g transform="" style="fill: rgb(32, 126, 69);">
<rect width="100" height="100"/>
</g></g><g transform="translate(96,480) scale(0.48,0.48)"><g transform="" style="fill: rgb(32, 126, 69);">
<rect width="100" height="100"/>
</g></g><g transform="translate(192,480) scale(0.48,0.48)"><g transform="" style="fill: rgb(32, 126, 69);">
<rect width="100" height="100"/>
</g></g><g transform="translate(240,480) scale(0.48,0.48)"><g transform="" style="fill: rgb(32, 126, 69);">
<rect width="100" height="100"/>
</g></g><g transform="translate(288,480) scale(0.48,0.48)"><g transform="" style="fill: rgb(32, 126, 69);">
<rect width="100" height="100"/>
</g></g><g transform="translate(336,480) scale(0.48,0.48)"><g transform="" style="fill: rgb(32, 126, 69);">
<rect width="100" height="100"/>
</g></g><g transform="translate(384,480) scale(0.48,0.48)"><g transform="" style="fill: rgb(32, 126, 69);">
<rect width="100" height="100"/>
</g></g><g transform="translate(480,480) scale(0.48,0.48)"><g transform="" style="fill: rgb(32, 126, 69);">
<rect width="100" height="100"/>
</g></g><g transform="translate(528,480) scale(0.48,0.48)"><g transform="" style="fill: rgb(32, 126, 69);">
<rect width="100" height="100"/>
</g></g><g transform="translate(624,480) scale(0.48,0.48)"><g transform="" style="fill: rgb(32, 126, 69);">
<rect width="100" height="100"/>
</g></g><g transform="translate(672,480) scale(0.48,0.48)"><g transform="" style="fill: rgb(32, 126, 69);">
<rect width="100" height="100"/>
</g></g><g transform="translate(768,480) scale(0.48,0.48)"><g transform="" style="fill: rgb(32, 126, 69);">
<rect width="100" height="100"/>
</g></g><g transform="translate(816,480) scale(0.48,0.48)"><g transform="" style="fill: rgb(32, 126, 69);">
<rect width="100" height="100"/>
</g></g><g transform="translate(960,480) scale(0.48,0.48)"><g transform="" style="fill: rgb(32, 126, 69);">
<rect width="100" height="100"/>
</g></g><g transform="translate(192,528) scale(0.48,0.48)"><g transform="" style="fill: rgb(32, 126, 69);">
<rect width="100" height="100"/>
</g></g><g transform="translate(336,528) scale(0.48,0.48)"><g transform="" style="fill: rgb(32, 126, 69);">
<rect width="100" height="100"/>
</g></g><g transform="translate(384,528) scale(0.48,0.48)"><g transform="" style="fill: rgb(32, 126, 69);">
<rect width="100" height="100"/>
</g></g><g transform="translate(480,528) scale(0.48,0.48)"><g transform="" style="fill: rgb(32, 126, 69);">
<rect width="100" height="100"/>
</g></g><g transform="translate(528,528) scale(0.48,0.48)"><g transform="" style="fill: rgb(32, 126, 69);">
<rect width="100" height="100"/>
</g></g><g transform="translate(576,528) scale(0.48,0.48)"><g transform="" style="fill: rgb(32, 126, 69);">
<rect width="100" height="100"/>
</g></g><g transform="translate(624,528) scale(0.48,0.48)"><g transform="" style="fill: rgb(32, 126, 69);">
<rect width="100" height="100"/>
</g></g><g transform="translate(720,528) scale(0.48,0.48)"><g transform="" style="fill: rgb(32, 126, 69);">
<rect width="100" height="100"/>
</g></g><g transform="translate(912,528) scale(0.48,0.48)"><g transform="" style="fill: rgb(32, 126, 69);">
<rect width="100" height="100"/>
</g></g><g transform="translate(960,528) scale(0.48,0.48)"><g transform="" style="fill: rgb(32, 126, 69);">
<rect width="100" height="100"/>
</g></g><g transform="translate(0,576) scale(0.48,0.48)"><g transform="" style="fill: rgb(32, 126, 69);">
<rect width="100" height="100"/>
</g></g><g transform="translate(48,576) scale(0.48,0.48)"><g transform="" style="fill: rgb(32, 126, 69);">
<rect width="100" height="100"/>
</g></g><g transform="translate(96,576) scale(0.48,0.48)"><g transform="" style="fill: rgb(32, 126, 69);">
<rect width="100" height="100"/>
</g></g><g transform="translate(240,576) scale(0.48,0.48)"><g transform="" style="fill: rgb(32, 126, 69);">
<rect width="100" height="100"/>
</g></g><g transform="translate(288,576) scale(0.48,0.48)"><g transform="" style="fill: rgb(32, 126, 69);">
<rect width="100" height="100"/>
</g></g><g transform="translate(336,576) scale(0.48,0.48)"><g transform="" style="fill: rgb(32, 126, 69);">
<rect width="100" height="100"/>
</g></g><g transform="translate(528,576) scale(0.48,0.48)"><g transform="" style="fill: rgb(32, 126, 69);">
<rect width="100" height="100"/>
</g></g><g transform="translate(624,576) scale(0.48,0.48)"><g transform="" style="fill: rgb(32, 126, 69);">
<rect width="100" height="100"/>
</g></g><g transform="translate(768,576) scale(0.48,0.48)"><g transform="" style="fill: rgb(32, 126, 69);">
<rect width="100" height="100"/>
</g></g><g transform="translate(816,576) scale(0.48,0.48)"><g transform="" style="fill: rgb(32, 126, 69);">
<rect width="100" height="100"/>
</g></g><g transform="translate(864,576) scale(0.48,0.48)"><g transform="" style="fill: rgb(32, 126, 69);">
<rect width="100" height="100"/>
</g></g><g transform="translate(912,576) scale(0.48,0.48)"><g transform="" style="fill: rgb(32, 126, 69);">
<rect width="100" height="100"/>
</g></g><g transform="translate(384,624) scale(0.48,0.48)"><g transform="" style="fill: rgb(32, 126, 69);">
<rect width="100" height="100"/>
</g></g><g transform="translate(528,624) scale(0.48,0.48)"><g transform="" style="fill: rgb(32, 126, 69);">
<rect width="100" height="100"/>
</g></g><g transform="translate(624,624) scale(0.48,0.48)"><g transform="" style="fill: rgb(32, 126, 69);">
<rect width="100" height="100"/>
</g></g><g transform="translate(768,624) scale(0.48,0.48)"><g transform="" style="fill: rgb(32, 126, 69);">
<rect width="100" height="100"/>
</g></g><g transform="translate(816,624) scale(0.48,0.48)"><g transform="" style="fill: rgb(32, 126, 69);">
<rect width="100" height="100"/>
</g></g><g transform="translate(432,672) scale(0.48,0.48)"><g transform="" style="fill: rgb(32, 126, 69);">
<rect width="100" height="100"/>
</g></g><g transform="translate(576,672) scale(0.48,0.48)"><g transform="" style="fill: rgb(32, 126, 69);">
<rect width="100" height="100"/>
</g></g><g transform="translate(672,672) scale(0.48,0.48)"><g transform="" style="fill: rgb(32, 126, 69);">
<rect width="100" height="100"/>
</g></g><g transform="translate(768,672) scale(0.48,0.48)"><g transform="" style="fill: rgb(32, 126, 69);">
<rect width="100" height="100"/>
</g></g><g transform="translate(816,672) scale(0.48,0.48)"><g transform="" style="fill: rgb(32, 126, 69);">
<rect width="100" height="100"/>
</g></g><g transform="translate(912,672) scale(0.48,0.48)"><g transform="" style="fill: rgb(32, 126, 69);">
<rect width="100" height="100"/>
</g></g><g transform="translate(960,672) scale(0.48,0.48)"><g transform="" style="fill: rgb(32, 126, 69);">
<rect width="100" height="100"/>
</g></g><g transform="translate(480,720) scale(0.48,0.48)"><g transform="" style="fill: rgb(32, 126, 69);">
<rect width="100" height="100"/>
</g></g><g transform="translate(528,720) scale(0.48,0.48)"><g transform="" style="fill: rgb(32, 126, 69);">
<rect width="100" height="100"/>
</g></g><g transform="translate(624,720) scale(0.48,0.48)"><g transform="" style="fill: rgb(32, 126, 69);">
<rect width="100" height="100"/>
</g></g><g transform="translate(720,720) scale(0.48,0.48)"><g transform="" style="fill: rgb(32, 126, 69);">
<rect width="100" height="100"/>
</g></g><g transform="translate(768,720) scale(0.48,0.48)"><g transform="" style="fill: rgb(32, 126, 69);">
<rect width="100" height="100"/>
</g></g><g transform="translate(912,720) scale(0.48,0.48)"><g transform="" style="fill: rgb(32, 126, 69);">
<rect width="100" height="100"/>
</g></g><g transform="translate(384,768) scale(0.48,0.48)"><g transform="" style="fill: rgb(32, 126, 69);">
<rect width="100" height="100"/>
</g></g><g transform="translate(480,768) scale(0.48,0.48)"><g transform="" style="fill: rgb(32, 126, 69);">
<rect width="100" height="100"/>
</g></g><g transform="translate(528,768) scale(0.48,0.48)"><g transform="" style="fill: rgb(32, 126, 69);">
<rect width="100" height="100"/>
</g></g><g transform="translate(576,768) scale(0.48,0.48)"><g transform="" style="fill: rgb(32, 126, 69);">
<rect width="100" height="100"/>
</g></g><g transform="translate(624,768) scale(0.48,0.48)"><g transform="" style="fill: rgb(32, 126, 69);">
<rect width="100" height="100"/>
</g></g><g transform="translate(768,768) scale(0.48,0.48)"><g transform="" style="fill: rgb(32, 126, 69);">
<rect width="100" height="100"/>
</g></g><g transform="translate(864,768) scale(0.48,0.48)"><g transform="" style="fill: rgb(32, 126, 69);">
<rect width="100" height="100"/>
</g></g><g transform="translate(912,768) scale(0.48,0.48)"><g transform="" style="fill: rgb(32, 126, 69);">
<rect width="100" height="100"/>
</g></g><g transform="translate(480,816) scale(0.48,0.48)"><g transform="" style="fill: rgb(32, 126, 69);">
<rect width="100" height="100"/>
</g></g><g transform="translate(576,816) scale(0.48,0.48)"><g transform="" style="fill: rgb(32, 126, 69);">
<rect width="100" height="100"/>
</g></g><g transform="translate(624,816) scale(0.48,0.48)"><g transform="" style="fill: rgb(32, 126, 69);">
<rect width="100" height="100"/>
</g></g><g transform="translate(768,816) scale(0.48,0.48)"><g transform="" style="fill: rgb(32, 126, 69);">
<rect width="100" height="100"/>
</g></g><g transform="translate(816,816) scale(0.48,0.48)"><g transform="" style="fill: rgb(32, 126, 69);">
<rect width="100" height="100"/>
</g></g><g transform="translate(912,816) scale(0.48,0.48)"><g transform="" style="fill: rgb(32, 126, 69);">
<rect width="100" height="100"/>
</g></g><g transform="translate(384,864) scale(0.48,0.48)"><g transform="" style="fill: rgb(32, 126, 69);">
<rect width="100" height="100"/>
</g></g><g transform="translate(432,864) scale(0.48,0.48)"><g transform="" style="fill: rgb(32, 126, 69);">
<rect width="100" height="100"/>
</g></g><g transform="translate(576,864) scale(0.48,0.48)"><g transform="" style="fill: rgb(32, 126, 69);">
<rect width="100" height="100"/>
</g></g><g transform="translate(768,864) scale(0.48,0.48)"><g transform="" style="fill: rgb(32, 126, 69);">
<rect width="100" height="100"/>
</g></g><g transform="translate(816,864) scale(0.48,0.48)"><g transform="" style="fill: rgb(32, 126, 69);">
<rect width="100" height="100"/>
</g></g><g transform="translate(960,864) scale(0.48,0.48)"><g transform="" style="fill: rgb(32, 126, 69);">
<rect width="100" height="100"/>
</g></g><g transform="translate(432,912) scale(0.48,0.48)"><g transform="" style="fill: rgb(32, 126, 69);">
<rect width="100" height="100"/>
</g></g><g transform="translate(480,912) scale(0.48,0.48)"><g transform="" style="fill: rgb(32, 126, 69);">
<rect width="100" height="100"/>
</g></g><g transform="translate(528,912) scale(0.48,0.48)"><g transform="" style="fill: rgb(32, 126, 69);">
<rect width="100" height="100"/>
</g></g><g transform="translate(624,912) scale(0.48,0.48)"><g transform="" style="fill: rgb(32, 126, 69);">
<rect width="100" height="100"/>
</g></g><g transform="translate(720,912) scale(0.48,0.48)"><g transform="" style="fill: rgb(32, 126, 69);">
<rect width="100" height="100"/>
</g></g><g transform="translate(768,912) scale(0.48,0.48)"><g transform="" style="fill: rgb(32, 126, 69);">
<rect width="100" height="100"/>
</g></g><g transform="translate(912,912) scale(0.48,0.48)"><g transform="" style="fill: rgb(32, 126, 69);">
<rect width="100" height="100"/>
</g></g><g transform="translate(384,960) scale(0.48,0.48)"><g transform="" style="fill: rgb(32, 126, 69);">
<rect width="100" height="100"/>
</g></g><g transform="translate(432,960) scale(0.48,0.48)"><g transform="" style="fill: rgb(32, 126, 69);">
<rect width="100" height="100"/>
</g></g><g transform="translate(576,960) scale(0.48,0.48)"><g transform="" style="fill: rgb(32, 126, 69);">
<rect width="100" height="100"/>
</g></g><g transform="translate(624,960) scale(0.48,0.48)"><g transform="" style="fill: rgb(32, 126, 69);">
<rect width="100" height="100"/>
</g></g><g transform="translate(720,960) scale(0.48,0.48)"><g transform="" style="fill: rgb(32, 126, 69);">
<rect width="100" height="100"/>
</g></g><g transform="translate(816,960) scale(0.48,0.48)"><g transform="" style="fill: rgb(32, 126, 69);">
<rect width="100" height="100"/>
</g></g><g transform="translate(864,960) scale(0.48,0.48)"><g transform="" style="fill: rgb(32, 126, 69);">
<rect width="100" height="100"/>
</g></g><g transform="translate(912,960) scale(0.48,0.48)"><g transform="" style="fill: rgb(32, 126, 69);">
<rect width="100" height="100"/>
</g></g><g transform="translate(960,960) scale(0.48,0.48)"><g transform="" style="fill: rgb(32, 126, 69);">
<rect width="100" height="100"/>
</g></g><g transform="translate(0,0) scale(3.36, 3.36)"><g transform="" style="fill: rgb(32, 126, 69);">
<g>
	<rect x="15" y="15" style="fill:none;" width="70" height="70"/>
	<path d="M85,0H15H0v15v70v15h15h70h15V85V15V0H85z M85,85H15V15h70V85z"/>
</g>
</g></g><g transform="translate(672,0) scale(3.36, 3.36)"><g transform="" style="fill: rgb(32, 126, 69);">
<g>
	<rect x="15" y="15" style="fill:none;" width="70" height="70"/>
	<path d="M85,0H15H0v15v70v15h15h70h15V85V15V0H85z M85,85H15V15h70V85z"/>
</g>
</g></g><g transform="translate(0,672) scale(3.36, 3.36)"><g transform="" style="fill: rgb(32, 126, 69);">
<g>
	<rect x="15" y="15" style="fill:none;" width="70" height="70"/>
	<path d="M85,0H15H0v15v70v15h15h70h15V85V15V0H85z M85,85H15V15h70V85z"/>
</g>
</g></g><g transform="translate(96,96) scale(1.44, 1.44)"><g transform="" style="fill: rgb(32, 126, 69);">
<rect width="100" height="100"/>
</g></g><g transform="translate(768,96) scale(1.44, 1.44)"><g transform="" style="fill: rgb(32, 126, 69);">
<rect width="100" height="100"/>
</g></g><g transform="translate(96,768) scale(1.44, 1.44)"><g transform="" style="fill: rgb(32, 126, 69);">
<rect width="100" height="100"/>
</g></g></g></svg>