<?xml version="1.0" encoding="utf-8"?>
<!DOCTYPE svg PUBLIC "-//W3C//DTD SVG 1.1//EN" "http://www.w3.org/Graphics/SVG/1.1/DTD/svg11.dtd">
<svg version="1.1" id="Layer_1" xmlns="http://www.w3.org/2000/svg" xmlns:xlink="http://www.w3.org/1999/xlink" x="0px" y="0px"
width="1325px" height="1325px" viewBox="0 0 1325 1325" enable-background="new 0 0 1325 1325" xml:space="preserve">
<rect x="0" y="0" width="1325" height="1325" fill="rgb(255,255,255)" /><g transform="translate(106,106)"><g transform="translate(477,0) scale(0.53,0.53)"><g transform="" style="fill: rgb(32, 126, 69);">
<rect width="100" height="100"/>
</g></g><g transform="translate(477,53) scale(0.53,0.53)"><g transform="" style="fill: rgb(32, 126, 69);">
<rect width="100" height="100"/>
</g></g><g transform="translate(530,53) scale(0.53,0.53)"><g transform="" style="fill: rgb(32, 126, 69);">
<rect width="100" height="100"/>
</g></g><g transform="translate(583,53) scale(0.53,0.53)"><g transform="" style="fill: rgb(32, 126, 69);">
<rect width="100" height="100"/>
</g></g><g transform="translate(636,53) scale(0.53,0.53)"><g transform="" style="fill: rgb(32, 126, 69);">
<rect width="100" height="100"/>
</g></g><g transform="translate(477,106) scale(0.53,0.53)"><g transform="" style="fill: rgb(32, 126, 69);">
<rect width="100" height="100"/>
</g></g><g transform="translate(530,106) scale(0.53,0.53)"><g transform="" style="fill: rgb(32, 126, 69);">
<rect width="100" height="100"/>
</g></g><g transform="translate(530,159) scale(0.53,0.53)"><g transform="" style="fill: rgb(32, 126, 69);">
<rect width="100" height="100"/>
</g></g><g transform="translate(636,159) scale(0.53,0.53)"><g transform="" style="fill: rgb(32, 126, 69);">
<rect width="100" height="100"/>
</g></g><g transform="translate(583,212) scale(0.53,0.53)"><g transform="" style="fill: rgb(32, 126, 69);">
<rect width="100" height="100"/>
</g></g><g transform="translate(636,212) scale(0.53,0.53)"><g transform="" style="fill: rgb(32, 126, 69);">
<rect width="100" height="100"/>
</g></g><g transform="translate(424,265) scale(0.53,0.53)"><g transform="" style="fill: rgb(32, 126, 69);">
<rect width="100" height="100"/>
</g></g><g transform="translate(424,318) scale(0.53,0.53)"><g transform="" style="fill: rgb(32, 126, 69);">
<rect width="100" height="100"/>
</g></g><g transform="translate(530,318) scale(0.53,0.53)"><g transform="" style="fill: rgb(32, 126, 69);">
<rect width="100" height="100"/>
</g></g><g transform="translate(636,318) scale(0.53,0.53)"><g transform="" style="fill: rgb(32, 126, 69);">
<rect width="100" height="100"/>
</g></g><g transform="translate(0,424) scale(0.53,0.53)"><g transform="" style="fill: rgb(32, 126, 69);">
<rect width="100" height="100"/>
</g></g><g transform="translate(159,424) scale(0.53,0.53)"><g transform="" style="fill: rgb(32, 126, 69);">
<rect width="100" height="100"/>
</g></g><g transform="translate(265,424) scale(0.53,0.53)"><g transform="" style="fill: rgb(32, 126, 69);">
<rect width="100" height="100"/>
</g></g><g transform="translate(318,424) scale(0.53,0.53)"><g transform="" style="fill: rgb(32, 126, 69);">
<rect width="100" height="100"/>
</g></g><g transform="translate(424,424) scale(0.53,0.53)"><g transform="" style="fill: rgb(32, 126, 69);">
<rect width="100" height="100"/>
</g></g><g transform="translate(477,424) scale(0.53,0.53)"><g transform="" style="fill: rgb(32, 126, 69);">
<rect width="100" height="100"/>
</g></g><g transform="translate(583,424) scale(0.53,0.53)"><g transform="" style="fill: rgb(32, 126, 69);">
<rect width="100" height="100"/>
</g></g><g transform="translate(636,424) scale(0.53,0.53)"><g transform="" style="fill: rgb(32, 126, 69);">
<rect width="100" height="100"/>
</g></g><g transform="translate(689,424) scale(0.53,0.53)"><g transform="" style="fill: rgb(32, 126, 69);">
<rect width="100" height="100"/>
</g></g><g transform="translate(795,424) scale(0.53,0.53)"><g transform="" style="fill: rgb(32, 126, 69);">
<rect width="100" height="100"/>
</g></g><g transform="translate(0,477) scale(0.53,0.53)"><g transform="" style="fill: rgb(32, 126, 69);">
<rect width="100" height="100"/>
</g></g><g transform="translate(106,477) scale(0.53,0.53)"><g transform="" style="fill: rgb(32, 126, 69);">
<rect width="100" height="100"/>
</g></g><g transform="translate(159,477) scale(0.53,0.53)"><g transform="" style="fill: rgb(32, 126, 69);">
<rect width="100" height="100"/>
</g></g><g transform="translate(212,477) scale(0.53,0.53)"><g transform="" style="fill: rgb(32, 126, 69);">
<rect width="100" height="100"/>
</g></g><g transform="translate(265,477) scale(0.53,0.53)"><g transform="" style="fill: rgb(32, 126, 69);">
<rect width="100" height="100"/>
</g></g><g transform="translate(477,477) scale(0.53,0.53)"><g transform="" style="fill: rgb(32, 126, 69);">
<rect width="100" height="100"/>
</g></g><g transform="translate(530,477) scale(0.53,0.53)"><g transform="" style="fill: rgb(32, 126, 69);">
<rect width="100" height="100"/>
</g></g><g transform="translate(583,477) scale(0.53,0.53)"><g transform="" style="fill: rgb(32, 126, 69);">
<rect width="100" height="100"/>
</g></g><g transform="translate(848,477) scale(0.53,0.53)"><g transform="" style="fill: rgb(32, 126, 69);">
<rect width="100" height="100"/>
</g></g><g transform="translate(901,477) scale(0.53,0.53)"><g transform="" style="fill: rgb(32, 126, 69);">
<rect width="100" height="100"/>
</g></g><g transform="translate(1007,477) scale(0.53,0.53)"><g transform="" style="fill: rgb(32, 126, 69);">
<rect width="100" height="100"/>
</g></g><g transform="translate(1060,477) scale(0.53,0.53)"><g transform="" style="fill: rgb(32, 126, 69);">
<rect width="100" height="100"/>
</g></g><g transform="translate(106,530) scale(0.53,0.53)"><g transform="" style="fill: rgb(32, 126, 69);">
<rect width="100" height="100"/>
</g></g><g transform="translate(159,530) scale(0.53,0.53)"><g transform="" style="fill: rgb(32, 126, 69);">
<rect width="100" height="100"/>
</g></g><g transform="translate(318,530) scale(0.53,0.53)"><g transform="" style="fill: rgb(32, 126, 69);">
<rect width="100" height="100"/>
</g></g><g transform="translate(371,530) scale(0.53,0.53)"><g transform="" style="fill: rgb(32, 126, 69);">
<rect width="100" height="100"/>
</g></g><g transform="translate(530,530) scale(0.53,0.53)"><g transform="" style="fill: rgb(32, 126, 69);">
<rect width="100" height="100"/>
</g></g><g transform="translate(583,530) scale(0.53,0.53)"><g transform="" style="fill: rgb(32, 126, 69);">
<rect width="100" height="100"/>
</g></g><g transform="translate(742,530) scale(0.53,0.53)"><g transform="" style="fill: rgb(32, 126, 69);">
<rect width="100" height="100"/>
</g></g><g transform="translate(901,530) scale(0.53,0.53)"><g transform="" style="fill: rgb(32, 126, 69);">
<rect width="100" height="100"/>
</g></g><g transform="translate(1007,530) scale(0.53,0.53)"><g transform="" style="fill: rgb(32, 126, 69);">
<rect width="100" height="100"/>
</g></g><g transform="translate(1060,530) scale(0.53,0.53)"><g transform="" style="fill: rgb(32, 126, 69);">
<rect width="100" height="100"/>
</g></g><g transform="translate(212,583) scale(0.53,0.53)"><g transform="" style="fill: rgb(32, 126, 69);">
<rect width="100" height="100"/>
</g></g><g transform="translate(265,583) scale(0.53,0.53)"><g transform="" style="fill: rgb(32, 126, 69);">
<rect width="100" height="100"/>
</g></g><g transform="translate(371,583) scale(0.53,0.53)"><g transform="" style="fill: rgb(32, 126, 69);">
<rect width="100" height="100"/>
</g></g><g transform="translate(477,583) scale(0.53,0.53)"><g transform="" style="fill: rgb(32, 126, 69);">
<rect width="100" height="100"/>
</g></g><g transform="translate(636,583) scale(0.53,0.53)"><g transform="" style="fill: rgb(32, 126, 69);">
<rect width="100" height="100"/>
</g></g><g transform="translate(689,583) scale(0.53,0.53)"><g transform="" style="fill: rgb(32, 126, 69);">
<rect width="100" height="100"/>
</g></g><g transform="translate(742,583) scale(0.53,0.53)"><g transform="" style="fill: rgb(32, 126, 69);">
<rect width="100" height="100"/>
</g></g><g transform="translate(795,583) scale(0.53,0.53)"><g transform="" style="fill: rgb(32, 126, 69);">
<rect width="100" height="100"/>
</g></g><g transform="translate(901,583) scale(0.53,0.53)"><g transform="" style="fill: rgb(32, 126, 69);">
<rect width="100" height="100"/>
</g></g><g transform="translate(1007,583) scale(0.53,0.53)"><g transform="" style="fill: rgb(32, 126, 69);">
<rect width="100" height="100"/>
</g></g><g transform="translate(0,636) scale(0.53,0.53)"><g transform="" style="fill: rgb(32, 126, 69);">
<rect width="100" height="100"/>
</g></g><g transform="translate(53,636) scale(0.53,0.53)"><g transform="" style="fill: rgb(32, 126, 69);">
<rect width="100" height="100"/>
</g></g><g transform="translate(212,636) scale(0.53,0.53)"><g transform="" style="fill: rgb(32, 126, 69);">
<rect width="100" height="100"/>
</g></g><g transform="translate(265,636) scale(0.53,0.53)"><g transform="" style="fill: rgb(32, 126, 69);">
<rect width="100" height="100"/>
</g></g><g transform="translate(318,636) scale(0.53,0.53)"><g transform="" style="fill: rgb(32, 126, 69);">
<rect width="100" height="100"/>
</g></g><g transform="translate(371,636) scale(0.53,0.53)"><g transform="" style="fill: rgb(32, 126, 69);">
<rect width="100" height="100"/>
</g></g><g transform="translate(477,636) scale(0.53,0.53)"><g transform="" style="fill: rgb(32, 126, 69);">
<rect width="100" height="100"/>
</g></g><g transform="translate(583,636) scale(0.53,0.53)"><g transform="" style="fill: rgb(32, 126, 69);">
<rect width="100" height="100"/>
</g></g><g transform="translate(689,636) scale(0.53,0.53)"><g transform="" style="fill: rgb(32, 126, 69);">
<rect width="100" height="100"/>
</g></g><g transform="translate(848,636) scale(0.53,0.53)"><g transform="" style="fill: rgb(32, 126, 69);">
<rect width="100" height="100"/>
</g></g><g transform="translate(901,636) scale(0.53,0.53)"><g transform="" style="fill: rgb(32, 126, 69);">
<rect width="100" height="100"/>
</g></g><g transform="translate(954,636) scale(0.53,0.53)"><g transform="" style="fill: rgb(32, 126, 69);">
<rect width="100" height="100"/>
</g></g><g transform="translate(1007,636) scale(0.53,0.53)"><g transform="" style="fill: rgb(32, 126, 69);">
<rect width="100" height="100"/>
</g></g><g transform="translate(424,689) scale(0.53,0.53)"><g transform="" style="fill: rgb(32, 126, 69);">
<rect width="100" height="100"/>
</g></g><g transform="translate(583,689) scale(0.53,0.53)"><g transform="" style="fill: rgb(32, 126, 69);">
<rect width="100" height="100"/>
</g></g><g transform="translate(901,689) scale(0.53,0.53)"><g transform="" style="fill: rgb(32, 126, 69);">
<rect width="100" height="100"/>
</g></g><g transform="translate(1007,689) scale(0.53,0.53)"><g transform="" style="fill: rgb(32, 126, 69);">
<rect width="100" height="100"/>
</g></g><g transform="translate(477,742) scale(0.53,0.53)"><g transform="" style="fill: rgb(32, 126, 69);">
<rect width="100" height="100"/>
</g></g><g transform="translate(583,742) scale(0.53,0.53)"><g transform="" style="fill: rgb(32, 126, 69);">
<rect width="100" height="100"/>
</g></g><g transform="translate(636,742) scale(0.53,0.53)"><g transform="" style="fill: rgb(32, 126, 69);">
<rect width="100" height="100"/>
</g></g><g transform="translate(848,742) scale(0.53,0.53)"><g transform="" style="fill: rgb(32, 126, 69);">
<rect width="100" height="100"/>
</g></g><g transform="translate(1007,742) scale(0.53,0.53)"><g transform="" style="fill: rgb(32, 126, 69);">
<rect width="100" height="100"/>
</g></g><g transform="translate(424,795) scale(0.53,0.53)"><g transform="" style="fill: rgb(32, 126, 69);">
<rect width="100" height="100"/>
</g></g><g transform="translate(530,795) scale(0.53,0.53)"><g transform="" style="fill: rgb(32, 126, 69);">
<rect width="100" height="100"/>
</g></g><g transform="translate(583,795) scale(0.53,0.53)"><g transform="" style="fill: rgb(32, 126, 69);">
<rect width="100" height="100"/>
</g></g><g transform="translate(689,795) scale(0.53,0.53)"><g transform="" style="fill: rgb(32, 126, 69);">
<rect width="100" height="100"/>
</g></g><g transform="translate(795,795) scale(0.53,0.53)"><g transform="" style="fill: rgb(32, 126, 69);">
<rect width="100" height="100"/>
</g></g><g transform="translate(848,795) scale(0.53,0.53)"><g transform="" style="fill: rgb(32, 126, 69);">
<rect width="100" height="100"/>
</g></g><g transform="translate(1007,795) scale(0.53,0.53)"><g transform="" style="fill: rgb(32, 126, 69);">
<rect width="100" height="100"/>
</g></g><g transform="translate(530,848) scale(0.53,0.53)"><g transform="" style="fill: rgb(32, 126, 69);">
<rect width="100" height="100"/>
</g></g><g transform="translate(636,848) scale(0.53,0.53)"><g transform="" style="fill: rgb(32, 126, 69);">
<rect width="100" height="100"/>
</g></g><g transform="translate(954,848) scale(0.53,0.53)"><g transform="" style="fill: rgb(32, 126, 69);">
<rect width="100" height="100"/>
</g></g><g transform="translate(424,901) scale(0.53,0.53)"><g transform="" style="fill: rgb(32, 126, 69);">
<rect width="100" height="100"/>
</g></g><g transform="translate(583,901) scale(0.53,0.53)"><g transform="" style="fill: rgb(32, 126, 69);">
<rect width="100" height="100"/>
</g></g><g transform="translate(636,901) scale(0.53,0.53)"><g transform="" style="fill: rgb(32, 126, 69);">
<rect width="100" height="100"/>
</g></g><g transform="translate(689,901) scale(0.53,0.53)"><g transform="" style="fill: rgb(32, 126, 69);">
<rect width="100" height="100"/>
</g></g><g transform="translate(742,901) scale(0.53,0.53)"><g transform="" style="fill: rgb(32, 126, 69);">
<rect width="100" height="100"/>
</g></g><g transform="translate(848,901) scale(0.53,0.53)"><g transform="" style="fill: rgb(32, 126, 69);">
<rect width="100" height="100"/>
</g></g><g transform="translate(1007,901) scale(0.53,0.53)"><g transform="" style="fill: rgb(32, 126, 69);">
<rect width="100" height="100"/>
</g></g><g transform="translate(1060,901) scale(0.53,0.53)"><g transform="" style="fill: rgb(32, 126, 69);">
<rect width="100" height="100"/>
</g></g><g transform="translate(530,954) scale(0.53,0.53)"><g transform="" style="fill: rgb(32, 126, 69);">
<rect width="100" height="100"/>
</g></g><g transform="translate(636,954) scale(0.53,0.53)"><g transform="" style="fill: rgb(32, 126, 69);">
<rect width="100" height="100"/>
</g></g><g transform="translate(848,954) scale(0.53,0.53)"><g transform="" style="fill: rgb(32, 126, 69);">
<rect width="100" height="100"/>
</g></g><g transform="translate(901,954) scale(0.53,0.53)"><g transform="" style="fill: rgb(32, 126, 69);">
<rect width="100" height="100"/>
</g></g><g transform="translate(1060,954) scale(0.53,0.53)"><g transform="" style="fill: rgb(32, 126, 69);">
<rect width="100" height="100"/>
</g></g><g transform="translate(530,1007) scale(0.53,0.53)"><g transform="" style="fill: rgb(32, 126, 69);">
<rect width="100" height="100"/>
</g></g><g transform="translate(583,1007) scale(0.53,0.53)"><g transform="" style="fill: rgb(32, 126, 69);">
<rect width="100" height="100"/>
</g></g><g transform="translate(795,1007) scale(0.53,0.53)"><g transform="" style="fill: rgb(32, 126, 69);">
<rect width="100" height="100"/>
</g></g><g transform="translate(424,1060) scale(0.53,0.53)"><g transform="" style="fill: rgb(32, 126, 69);">
<rect width="100" height="100"/>
</g></g><g transform="translate(583,1060) scale(0.53,0.53)"><g transform="" style="fill: rgb(32, 126, 69);">
<rect width="100" height="100"/>
</g></g><g transform="translate(636,1060) scale(0.53,0.53)"><g transform="" style="fill: rgb(32, 126, 69);">
<rect width="100" height="100"/>
</g></g><g transform="translate(689,1060) scale(0.53,0.53)"><g transform="" style="fill: rgb(32, 126, 69);">
<rect width="100" height="100"/>
</g></g><g transform="translate(742,1060) scale(0.53,0.53)"><g transform="" style="fill: rgb(32, 126, 69);">
<rect width="100" height="100"/>
</g></g><g transform="translate(795,1060) scale(0.53,0.53)"><g transform="" style="fill: rgb(32, 126, 69);">
<rect width="100" height="100"/>
</g></g><g transform="translate(954,1060) scale(0.53,0.53)"><g transform="" style="fill: rgb(32, 126, 69);">
<rect width="100" height="100"/>
</g></g><g transform="translate(1007,1060) scale(0.53,0.53)"><g transform="" style="fill: rgb(32, 126, 69);">
<rect width="100" height="100"/>
</g></g><g transform="translate(0,0) scale(3.71, 3.71)"><g transform="" style="fill: rgb(32, 126, 69);">
<g>
	<rect x="15" y="15" style="fill:none;" width="70" height="70"/>
	<path d="M85,0H15H0v15v70v15h15h70h15V85V15V0H85z M85,85H15V15h70V85z"/>
</g>
</g></g><g transform="translate(742,0) scale(3.71, 3.71)"><g transform="" style="fill: rgb(32, 126, 69);">
<g>
	<rect x="15" y="15" style="fill:none;" width="70" height="70"/>
	<path d="M85,0H15H0v15v70v15h15h70h15V85V15V0H85z M85,85H15V15h70V85z"/>
</g>
</g></g><g transform="translate(0,742) scale(3.71, 3.71)"><g transform="" style="fill: rgb(32, 126, 69);">
<g>
	<rect x="15" y="15" style="fill:none;" width="70" height="70"/>
	<path d="M85,0H15H0v15v70v15h15h70h15V85V15V0H85z M85,85H15V15h70V85z"/>
</g>
</g></g><g transform="translate(106,106) scale(1.59, 1.59)"><g transform="" style="fill: rgb(32, 126, 69);">
<rect width="100" height="100"/>
</g></g><g transform="translate(848,106) scale(1.59, 1.59)"><g transform="" style="fill: rgb(32, 126, 69);">
<rect width="100" height="100"/>
</g></g><g transform="translate(106,848) scale(1.59, 1.59)"><g transform="" style="fill: rgb(32, 126, 69);">
<rect width="100" height="100"/>
</g></g></g></svg>